# xmcd
#
# Track frame offsets: 
#        150
#        20207
#        33792
#        62314
#        76732
#        96177
#        112232
#        126150
#        140387
#        155185
#        172255
#        199672
#        213962
#        240742
#        262730
#        276490
#
# Disc length: 3862 seconds
#
# Revision: 0
# Processed by: cddbd v1.5.2PL0 Copyright (c) Steve Scherf et al.
# Submitted via: ExactAudioCopy v1.3
#
DISCID=e50f1410
DTITLE=AAVV - Beat and Be Bop
DYEAR=1900
DGENRE=
TTITLE0=Anita O'Day - The ballad of all the sad young men
TTITLE1=Charlie Parker, Al Haig, Percy Heath, Max Roach - Confirmation
TTITLE2=Stan Getz, Conte Candoli, Lou Levy, Leroy Vinnegar, Shelly Man
TTITLE2=ne - East of the sun (and west of the moon)
TTITLE3=Jack Kerouac - San Francisco scene (The Beat Generation)
TTITLE4=Dizzy Gillespie, Gilbert Valdez, Rene Hernandez, Robert Rodrig
TTITLE4=uez, Candido Camero, Jose Mangual, Ralph Miranda, Ubaldo Nieto
TTITLE4=A night in Tunisia
TTITLE5=Slim Gaillard, Maceo Williams, Clyde Lombardi, Charlie Smith /
TTITLE5=Babalu
TTITLE6=Slim Gaillard - Opera in Vout (Groove Juice Symphony)
TTITLE7=Jack Kerouac - The subterraneans
TTITLE8=Roy Eldridge, Oscar Peterson, Barney Kessel, Ray Brown, J.C. H
TTITLE8=eard - Rockin' chair
TTITLE9=Lester Young, Hank Jones, Ray Brown, Buddy Rich - Up'n Adam
TTITLE10=Charlie Parker, Ella Fitzgerald, Roy Eldridge, Tommy Turk, Fl
TTITLE10=ip Phillips, Lester Young, Hank Jones, Ray Brown, Buddy Rich 
TTITLE10=/ How high the moon
TTITLE11=Jack Kerouac - Version of Neal (Neal and the Three Stooges) Par
TTITLE11=t 1
TTITLE12=Count Basie, Reanuld Jones, Thad Jones, Wendell Culley, Joe N
TTITLE12=ewman, Bill Highes, Henry Coker, Benny Powell, Marshall Royal
TTITLE12=, Ernie Wilkins, Frank Wess, Frank Foster, Charlie Fowlkes, F
TTITLE12=reddie Green, Eddie Jones, Gus Johnson - Down for the count
TTITLE13=George Shearing, Louis Stewart, Niels Henning Orster-Pedersen
TTITLE13=Last night when we were young
TTITLE14=Clifford Brown, Richie Powell, Barry Galbraith, George Morrow
TTITLE14=, Max Roach, Neal Hefti - Embraceable you
TTITLE15=Billie Holiday, Jimmy Cleveland, Romeo Penque, Hank Jones, Ke
TTITLE15=nny Burrell, Joe Benjamin, Janet Putnam, Osle Johnson, Ray El
TTITLE15=lis - Lover man
EXTD=
EXTT0=
EXTT1=
EXTT2=
EXTT3=
EXTT4=
EXTT5=
EXTT6=
EXTT7=
EXTT8=
EXTT9=
EXTT10=
EXTT11=
EXTT12=
EXTT13=
EXTT14=
EXTT15=
PLAYORDER=
